Coordinates
version=1
nRows=17
nColumns=27
inDegrees=yes

Units are S.I. units (second, meters, Newtons, ...)
If the header above contains a line with 'inDegrees', this indicates whether rotational values are in degrees (yes) or radians (no).

endheader
time	pelvis_rotation	pelvis_tilt	pelvis_list	pelvis_tx	pelvis_ty	pelvis_tz	hip_flexion_r	hip_adduction_r	hip_rotation_r	knee_angle_r	knee_rotation_r	knee_adduction_r	knee_angle_r_beta	ankle_angle_r	subtalar_angle_r	mtp_angle_r	hip_flexion_l	hip_adduction_l	hip_rotation_l	knee_angle_l	knee_rotation_l	knee_adduction_l	knee_angle_l_beta	ankle_angle_l	subtalar_angle_l	mtp_angle_l
      9.35500000	      5.27236973	    -49.45490258	      6.43639727	     -0.13741779	      0.78198376	     -1.21262995	    101.11108123	    -15.49920737	    -14.59613909	     65.05984950	     -7.93766458	      8.50214069	      1.13550858	     10.70794562	     -3.71763688	      0.00000000	     98.48269883	     -7.83360373	    -19.18428112	     60.94632704	     -8.46508182	     -9.46268101	      1.06371407	      9.88047617	      2.84251895	      0.00000000
      9.36000000	      4.92553163	    -49.36246510	      6.23230174	     -0.13751341	      0.77948888	     -1.21227189	    101.39056463	    -15.08135680	    -14.32111619	     65.58806646	     -8.07851211	      8.44084393	      1.14472771	     10.83061960	     -4.05205999	      0.00000000	     98.78731850	     -8.14953862	    -19.13343746	     61.62913386	     -8.56207588	     -9.47190779	      1.07563130	     10.12623395	      2.78564349	      0.00000000
      9.36500000	      5.29818671	    -49.33347465	      6.37524658	     -0.13767259	      0.77694934	     -1.21245631	    101.78511433	    -15.32216879	    -14.23629339	     66.22743240	     -8.21253970	      8.40916601	      1.15588675	     11.06113427	     -4.15990344	      0.00000000	     99.22753935	     -7.80582666	    -18.81202882	     62.20334635	     -8.63539521	     -9.46765528	      1.08565320	     10.23337053	      2.45728242	      0.00000000
      9.37000000	      4.96538308	    -49.25435621	      6.21782746	     -0.13779173	      0.77452232	     -1.21212524	    102.07662193	    -14.90333680	    -13.91246982	     66.73674432	     -8.32575598	      8.33730193	      1.16477592	     11.15462986	     -4.51108381	      0.00000000	     99.51796663	     -8.11971521	    -18.78220470	     62.84969183	     -8.69895800	     -9.47833655	      1.09693406	     10.44515701	      2.36384689	      0.00000000
      9.37500000	      4.86736081	    -49.20297410	      6.23089534	     -0.13794920	      0.77207889	     -1.21201614	    102.44474293	    -14.69016687	    -13.59253841	     67.29371703	     -8.43960345	      8.28242322	      1.17449693	     11.25890995	     -4.81657747	      0.00000000	     99.84527248	     -8.22687635	    -18.75174373	     63.45674018	     -8.77484457	     -9.47558940	      1.10752905	     10.63252130	      2.19288531	      0.00000000
      9.38000000	      5.20825931	    -49.19426633	      6.45961293	     -0.13811911	      0.76965428	     -1.21215611	    102.87397635	    -14.87332167	    -13.34986735	     67.90596063	     -8.51060375	      8.21081194	      1.18518259	     11.46898147	     -4.93816212	      0.00000000	    100.23907108	     -7.94109328	    -18.57911608	     63.97629222	     -8.84345981	     -9.47626038	      1.11659694	     10.78055094	      1.97247374	      0.00000000
      9.38500000	      4.85532127	    -49.56083899	      5.93042928	     -0.13933521	      0.76619999	     -1.21151900	    103.64522353	    -14.44560810	    -12.66146460	     68.58965173	     -7.99144666	      7.47799829	      1.19711526	     11.55892069	     -5.12880692	      0.00000000	    101.28965850	     -8.32862154	    -17.36818335	     64.95233644	     -8.20453036	     -9.05697586	      1.13363213	     10.94074170	      1.69110375	      0.00000000
      9.39000000	      4.58517015	    -49.06926161	      6.08867187	     -0.13838047	      0.76509861	     -1.21153773	    103.39192412	    -14.09498012	    -12.84376839	     68.82874485	     -8.69553946	      8.03414183	      1.20128822	     11.64037196	     -5.54064859	      0.00000000	    100.81572247	     -8.52647882	    -18.43233632	     65.17030940	     -8.93993330	     -9.48872929	      1.13743647	     11.19911279	      1.81860600	      0.00000000
      9.39500000	      5.23414167	    -49.11536119	      6.51263377	     -0.13861992	      0.76269343	     -1.21190689	    103.92097957	    -14.54825588	    -12.62478359	     69.48365610	     -8.74920625	      7.99322080	      1.21271858	     11.85277488	     -5.62372174	      0.00000000	    101.27042625	     -7.97406326	    -18.22921221	     65.61760012	     -8.99326999	     -9.48138905	      1.14524317	     11.26611842	      1.47770833	      0.00000000
      9.40000000	      4.53018041	    -49.36011348	      6.05089986	     -0.13967235	      0.75928155	     -1.21106706	    104.61919020	    -13.77134527	    -11.59581416	     70.15131029	     -8.18519245	      7.18731006	      1.22437134	     11.96234549	     -5.74536403	      0.00000000	    102.06722034	     -8.73422473	    -17.46905233	     66.58578968	     -8.41797564	     -9.08514024	      1.16214126	     11.56112861	      1.51987665	      0.00000000
      9.40500000	      5.41382988	    -49.08157847	      6.48237902	     -0.13896691	      0.75820651	     -1.21184608	    104.55748528	    -14.53613575	    -12.36690994	     70.49131518	     -8.88349893	      7.87225422	      1.23030554	     12.12940526	     -5.99730996	      0.00000000	    102.00144633	     -7.82028695	    -17.80500716	     66.65278860	     -9.06573485	     -9.48271176	      1.16331062	     11.53542569	      1.09246687	      0.00000000
      9.41000000	      5.18982031	    -49.03908894	      6.49790386	     -0.13915229	      0.75596328	     -1.21162621	    104.90125232	    -14.20000128	    -11.95944019	     70.97194595	     -8.92877212	      7.76853262	      1.23869413	     12.18915946	     -6.25429689	      0.00000000	    102.25463989	     -8.07720601	    -17.89999540	     67.17969702	     -9.11341465	     -9.49029622	      1.17250690	     11.71506038	      1.02266455	      0.00000000
      9.41500000	      4.87155974	    -48.97174236	      6.36804490	     -0.13931000	      0.75382114	     -1.21128564	    105.14745166	    -13.79511100	    -11.65629422	     71.39499366	     -8.97229685	      7.68248170	      1.24607771	     12.22502604	     -6.57664819	      0.00000000	    102.48647378	     -8.40517567	    -17.91149216	     67.71527720	     -9.15516411	     -9.48970020	      1.18185454	     11.93278060	      1.02654722	      0.00000000
      9.42000000	      4.93118765	    -48.95643903	      6.43089700	     -0.13950711	      0.75161907	     -1.21124403	    105.49317443	    -13.75428645	    -11.42453550	     71.89220215	     -9.00660782	      7.62245598	      1.25475563	     12.35202867	     -6.74050490	      0.00000000	    102.80867457	     -8.38652608	    -17.81528531	     68.20146366	     -9.17957320	     -9.49560894	      1.19034010	     12.07855339	      0.88113526	      0.00000000
      9.42500000	      4.93574237	    -49.26827132	      6.42770180	     -0.14059518	      0.74825310	     -1.21093935	    106.35705631	    -13.60894664	    -10.47286219	     72.65277898	     -8.43171483	      6.89572876	      1.26803020	     12.51425769	     -6.63786389	      0.00000000	    103.68641237	     -8.50788030	    -17.02684606	     68.99456616	     -8.65246785	     -9.08730361	      1.20418235	     12.21548894	      0.80530942	      0.00000000
      9.43000000	      5.36773500	    -48.92138397	      6.52085605	     -0.13990555	      0.74739074	     -1.21137426	    106.10616116	    -14.02629805	    -11.25888630	     72.86202226	     -9.08444799	      7.49854252	      1.27168219	     12.62284897	     -6.96076892	      0.00000000	    103.51006576	     -7.98952956	    -17.35309763	     69.09581260	     -9.23059306	     -9.49515129	      1.20594943	     12.23584197	      0.42701151	      0.00000000
      9.43500000	      4.95601365	    -48.84419725	      6.35892850	     -0.14006874	      0.74538404	     -1.21098135	    106.31162774	    -13.55647424	    -10.95498458	     73.23728729	     -9.10996809	      7.40041298	      1.27823180	     12.64713320	     -7.23110673	      0.00000000	    103.69485185	     -8.40539161	    -17.40037039	     69.59461936	     -9.26000914	     -9.50246618	      1.21465525	     12.43322851	      0.43586103	      0.00000000
